<?xml version="1.0" standalone="no"?>
<!DOCTYPE svg PUBLIC "-//W3C//DTD SVG 20010904//EN"
 "http://www.w3.org/TR/2001/REC-SVG-20010904/DTD/svg10.dtd">
<svg version="1.0" xmlns="http://www.w3.org/2000/svg"
 width="450.000000pt" height="450.000000pt" viewBox="0 0 450.000000 450.000000"
 preserveAspectRatio="xMidYMid meet">
<metadata>
Created by potrace 1.10, written by Peter Selinger 2001-2011
</metadata>
<g transform="translate(0.000000,450.000000) scale(0.050000,-0.050000)"
fill="#000000" stroke="none">
<path d="M7744 8957 c9 -65 57 -72 52 -9 -3 29 -17 52 -32 52 -16 0 -24 -17
-20 -43z"/>
<path d="M4330 8931 c-33 -15 -98 -37 -144 -50 -46 -12 -109 -43 -140 -68 -31
-25 -98 -61 -149 -80 -104 -39 -277 -180 -277 -226 0 -16 -28 -90 -62 -163
-291 -633 -471 -1186 -417 -1285 12 -22 10 -58 -3 -97 -42 -120 57 -582 124
-582 10 0 18 -13 18 -30 0 -16 15 -30 33 -30 19 0 28 6 20 13 -7 8 1 29 19 49
37 41 -16 149 -64 130 -16 -6 -22 1 -15 19 6 16 -8 65 -31 109 -62 120 -55
202 30 319 39 55 65 109 58 120 -15 26 -110 28 -110 3 0 -10 -13 -23 -30 -29
-69 -27 -5 68 89 133 28 19 75 34 105 34 31 0 56 9 56 20 0 11 -8 20 -17 20
-10 0 -18 36 -18 80 0 43 -11 93 -25 110 -21 25 -18 30 19 30 24 0 38 -9 31
-20 -7 -11 2 -20 19 -20 57 0 33 61 -29 73 -68 14 -80 58 -20 77 22 7 40 21
40 31 0 10 12 13 26 8 35 -14 82 77 69 130 -6 22 -4 41 5 41 10 0 20 20 24 45
3 25 19 45 34 45 52 0 73 63 46 134 -13 37 -16 69 -6 72 10 3 30 45 44 93 26
87 102 155 153 137 14 -5 25 0 25 12 0 12 -16 22 -35 23 -29 0 -26 8 15 42 28
23 47 54 44 69 -3 16 3 28 14 28 12 0 16 14 9 30 -8 21 2 30 31 30 24 0 42 13
42 29 0 38 49 63 160 81 50 8 100 23 113 33 15 12 28 11 36 -2 17 -26 91 -28
91 -2 0 11 -13 15 -30 8 -16 -6 -30 -1 -30 11 0 34 62 52 79 23 11 -18 19 -15
28 10 11 28 19 29 45 8 20 -17 36 -19 45 -6 7 11 36 14 63 7 47 -11 44 -16
-60 -86 -60 -41 -97 -74 -82 -74 16 0 57 22 92 49 35 26 81 46 102 42 21 -3
54 3 75 13 20 11 51 13 70 4 18 -8 49 -12 68 -10 19 3 35 -6 35 -18 0 -12 -8
-17 -18 -11 -11 6 -49 -17 -85 -51 -75 -69 -50 -71 104 -6 98 42 329 -59 349
-152 7 -32 28 -61 46 -66 19 -5 13 -6 -13 -4 -26 3 -74 -8 -107 -25 -42 -21
-87 -26 -153 -16 -200 29 -423 33 -423 8 0 -13 -6 -18 -13 -10 -7 7 -26 -6
-42 -28 -40 -58 -19 -69 57 -31 72 36 158 42 158 12 0 -11 -29 -20 -63 -20
-73 0 -67 -17 11 -31 28 -6 52 -1 52 11 0 11 16 20 35 20 30 1 31 3 5 20 -26
18 -26 22 -1 39 17 11 35 11 41 1 37 -60 253 -79 347 -30 32 17 89 30 126 30
41 0 64 8 57 20 -31 50 18 56 78 10 36 -27 83 -50 104 -50 32 -1 33 -4 8 -20
-16 -10 -46 -14 -65 -8 -52 16 -111 -9 -125 -53 -7 -22 -21 -34 -31 -28 -11 6
-19 -6 -19 -27 0 -41 90 -49 168 -14 36 16 36 17 1 43 -20 15 -29 33 -21 41 8
8 21 4 30 -10 10 -18 41 -21 96 -13 82 13 177 -17 156 -50 -24 -40 13 -81 54
-59 51 28 94 -25 95 -117 1 -36 9 -65 19 -65 10 0 23 -22 30 -50 18 -70 37
-62 78 31 35 81 80 95 60 19 -7 -25 1 -44 22 -52 22 -9 29 -26 21 -52 -12 -38
-11 -38 37 -7 28 18 55 26 60 17 13 -21 -55 -106 -84 -106 -12 0 -22 -13 -22
-30 0 -18 18 -30 45 -30 55 -1 81 -17 111 -70 22 -39 23 -39 23 5 1 25 10 45
21 45 41 0 19 -96 -29 -128 -28 -18 -45 -44 -39 -60 14 -36 -27 -61 -58 -36
-24 20 -79 31 -134 26 -25 -2 -25 -6 -2 -20 15 -10 21 -28 13 -40 -19 -31 -51
-27 -51 6 0 15 -13 33 -30 39 -20 8 -30 -1 -30 -28 0 -21 -10 -39 -21 -39 -12
0 -17 16 -11 35 9 28 -1 35 -53 35 -44 0 -66 -10 -67 -30 -3 -51 -46 -140 -68
-140 -37 0 -20 -57 29 -96 27 -21 44 -44 37 -51 -7 -7 -2 -13 11 -13 13 0 23
-25 23 -55 -1 -39 -6 -47 -18 -27 -14 21 -21 16 -32 -20 -8 -27 -33 -68 -56
-93 -33 -36 -37 -53 -20 -91 16 -34 15 -55 -6 -84 -40 -53 -35 -90 12 -90 41
0 62 -171 25 -208 -8 -9 -15 -22 -15 -30 0 -35 -140 -131 -167 -114 -86 53
-151 -166 -143 -483 2 -125 -34 -240 -80 -255 -51 -16 -52 -70 -1 -70 41 0
101 69 101 116 0 15 18 53 40 84 48 68 107 288 93 347 -12 49 35 128 56 94 7
-11 22 -21 33 -21 10 0 5 22 -13 48 -31 48 -30 50 37 81 99 47 206 163 180
195 -27 33 -17 307 14 386 23 61 79 323 86 405 4 43 34 66 34 25 0 -11 7 -19
15 -18 39 7 48 -5 25 -32 -20 -25 -19 -30 8 -30 17 0 32 9 32 20 0 11 15 20
32 20 27 0 28 -6 9 -29 -28 -34 -12 -71 30 -71 16 0 29 18 29 40 0 32 13 40
71 40 109 0 178 46 205 136 40 132 26 420 -18 393 -10 -6 -18 24 -18 67 0 62
-9 82 -39 89 -24 7 -47 41 -63 93 -13 45 -32 82 -41 82 -9 0 -17 13 -17 28 0
30 -113 79 -141 61 -9 -5 -22 0 -29 11 -7 11 -20 16 -29 11 -9 -6 -28 3 -41
19 -14 17 -38 30 -54 30 -15 0 -23 9 -16 20 7 11 -1 20 -16 20 -16 0 -40 14
-54 30 -14 17 -37 30 -52 30 -14 0 -49 23 -76 50 -28 28 -67 50 -87 50 -21 0
-73 30 -116 66 -44 36 -110 87 -149 113 -38 26 -97 72 -130 103 -85 79 -200
122 -348 129 -97 5 -158 22 -246 68 -127 66 -226 76 -326 32z m-538 -503 c-10
-25 -19 -29 -35 -13 -12 12 -16 38 -9 57 10 25 19 29 35 13 12 -12 16 -38 9
-57z m-348 -733 c-47 -47 -60 -20 -20 45 17 26 32 32 45 19 13 -13 4 -35 -25
-64z m2969 -365 c-18 -46 -136 -92 -168 -66 -38 32 -30 56 20 56 25 0 68 12
95 27 58 31 70 27 53 -17z"/>
<path d="M7172 8843 c-12 -20 31 -123 52 -123 31 0 36 41 6 53 -18 7 -28 24
-22 39 12 31 -20 58 -36 31z"/>
<path d="M4553 8627 c-7 -8 -13 -29 -13 -49 0 -19 -11 -39 -25 -45 -15 -6 -11
-10 10 -11 19 -1 35 11 35 26 0 15 14 33 30 39 17 7 30 21 30 32 0 23 -46 28
-67 8z"/>
<path d="M4170 8599 c-22 -9 -65 -21 -95 -28 -63 -13 -75 -71 -15 -71 51 0
200 60 200 80 0 26 -47 36 -90 19z"/>
<path d="M4315 8404 c-19 -4 -35 -14 -35 -23 0 -15 177 10 195 27 9 10 -109 7
-160 -4z"/>
<path d="M4060 8273 c0 -26 -99 -71 -230 -104 -33 -9 -67 -18 -75 -20 -8 -2
-22 -5 -30 -7 -8 -2 0 -12 18 -22 41 -24 317 55 317 91 0 13 20 38 45 56 l45
31 -45 1 c-25 1 -45 -11 -45 -26z"/>
<path d="M3892 8248 c-9 -24 -4 -29 19 -20 18 6 46 12 62 12 16 0 24 9 17 20
-19 31 -84 23 -98 -12z"/>
<path d="M4795 8252 c-87 -66 -3 -111 150 -80 63 13 75 48 16 48 -21 0 -52 14
-68 30 -36 36 -53 37 -98 2z"/>
<path d="M4269 8238 c-14 -22 95 -35 140 -17 27 11 31 17 11 19 -105 10 -144
10 -151 -2z"/>
<path d="M2100 8198 c0 -25 14 -38 40 -38 22 0 40 12 40 28 0 15 -18 32 -40
38 -30 8 -40 0 -40 -28z"/>
<path d="M5160 8160 c44 -62 87 -77 112 -37 17 27 -67 96 -118 97 -34 0 -34
-4 6 -60z"/>
<path d="M5553 8158 c-40 -46 -35 -65 12 -47 31 12 63 89 38 89 -8 0 -30 -19
-50 -42z"/>
<path d="M4130 8120 c-34 -15 -32 -17 20 -18 33 -1 74 7 90 18 39 25 -51 25
-110 0z"/>
<path d="M3996 8093 c-15 -15 -40 -32 -56 -38 -24 -10 -23 -12 4 -13 18 -1 39
7 46 18 7 11 30 20 51 20 22 0 39 9 39 20 0 29 -53 25 -84 -7z"/>
<path d="M2451 8082 c-12 -20 47 -40 84 -27 14 5 25 17 25 27 0 23 -94 24
-109 0z"/>
<path d="M3713 8087 c-26 -26 -12 -123 21 -150 23 -18 29 -19 19 -2 -9 14 -6
25 6 25 11 0 21 -13 21 -30 0 -16 8 -30 19 -30 33 0 13 80 -23 91 -20 7 -36
25 -36 42 0 16 9 24 20 17 11 -7 14 1 8 19 -13 33 -33 39 -55 18z"/>
<path d="M4260 8061 c28 -8 48 -25 45 -38 -7 -33 60 -29 128 8 l57 31 -80 -13
c-59 -9 -72 -7 -50 9 23 16 9 21 -60 20 -72 -2 -80 -5 -40 -17z"/>
<path d="M4780 8010 c0 -57 -14 -62 -58 -21 -28 25 -32 22 -35 -23 -2 -28 -12
-57 -24 -64 -11 -7 -19 -30 -17 -52 5 -47 -50 -63 -89 -25 -37 37 -97 58 -97
34 0 -10 9 -19 20 -19 11 0 20 -19 20 -42 0 -36 -9 -41 -60 -34 -46 7 -60 1
-60 -24 0 -38 -132 -107 -165 -87 -14 9 -17 2 -10 -18 7 -18 2 -37 -11 -43
-16 -6 -13 -17 10 -31 44 -28 25 -80 -25 -71 -21 4 -44 -2 -52 -14 -8 -13 -4
-16 10 -8 47 29 21 -25 -27 -56 -46 -30 -75 -90 -30 -62 11 7 20 -2 20 -19 0
-17 17 -31 38 -31 27 0 35 11 29 37 -7 24 3 42 26 50 21 7 73 26 117 41 44 15
65 29 46 30 -41 2 -26 62 15 62 14 0 38 12 53 26 54 54 133 96 198 104 74 10
206 -41 187 -71 -6 -11 12 -19 41 -19 29 0 74 -22 102 -50 27 -27 56 -49 64
-47 39 6 84 -5 84 -20 0 -10 -25 -13 -55 -8 -60 11 -54 1 43 -72 46 -34 63
-38 75 -19 12 20 16 18 17 -6 0 -35 144 -70 184 -45 15 9 18 -4 9 -38 -8 -31
-3 -59 13 -72 33 -27 121 -22 94 5 -31 31 -23 52 20 52 23 0 40 -13 40 -31 0
-17 9 -26 21 -18 11 7 32 3 47 -9 54 -45 106 24 55 75 -24 24 -43 56 -43 72 0
16 -31 44 -69 62 -92 44 -177 269 -101 269 44 0 37 48 -13 92 -38 33 -42 34
-31 4 7 -19 4 -40 -7 -47 -28 -17 -23 -107 12 -205 42 -122 13 -147 -42 -35
-24 52 -50 86 -56 77 -6 -10 -2 -31 8 -47 40 -63 16 -61 -40 3 -56 65 -59 66
-98 31 -43 -39 -71 -18 -50 37 16 41 -32 76 -66 48 -15 -13 -28 -13 -37 2 -7
11 -2 19 12 15 14 -3 29 11 33 30 11 49 -20 44 -82 -14 -53 -49 -97 -34 -53
19 13 16 18 38 11 49 -8 12 -5 21 5 21 11 0 24 19 30 41 11 43 -7 35 -82 -36
-36 -33 -81 -34 -48 -1 33 33 30 76 -6 76 -16 0 -30 -9 -30 -20 0 -11 -13 -20
-30 -20 -16 0 -30 -8 -30 -18 0 -9 -18 -22 -40 -28 -24 -6 -40 0 -40 15 0 14
18 41 40 61 22 20 40 46 40 59 0 12 41 34 90 47 59 16 90 35 90 56 0 21 -11
28 -30 21 -17 -7 -49 6 -70 27 -52 52 -60 50 -60 -10z"/>
<path d="M5273 8014 c-8 -30 -23 -54 -33 -54 -11 0 -20 -9 -20 -21 0 -11 -10
-32 -21 -45 -12 -13 -40 -55 -62 -92 -31 -53 -45 -62 -58 -41 -9 15 -24 21
-32 12 -17 -16 28 -52 66 -53 13 0 33 25 45 55 21 53 21 52 10 -13 -9 -46 -5
-63 10 -53 12 7 22 24 22 37 0 53 215 214 285 214 44 0 46 51 3 68 -39 15
-128 -6 -128 -30 0 -36 -42 -17 -58 26 -15 42 -16 42 -29 -10z"/>
<path d="M4240 7974 c0 -14 -27 -35 -60 -48 -44 -16 -92 -92 -55 -85 69 12
192 57 159 58 -39 1 -42 7 -25 40 26 48 26 61 1 61 -11 0 -20 -12 -20 -26z"/>
<path d="M3907 7885 c-16 -11 -15 -22 5 -41 23 -21 28 -20 28 4 0 17 24 33 55
38 l55 8 -60 3 c-33 1 -70 -4 -83 -12z"/>
<path d="M5595 7871 c-42 -31 -46 -60 -6 -44 24 9 25 3 8 -37 -18 -39 -15 -57
20 -101 24 -30 43 -44 43 -32 0 13 10 23 22 23 15 0 18 -38 8 -120 -8 -67 -6
-120 4 -120 19 0 21 11 31 180 6 88 0 115 -29 136 -20 15 -36 42 -36 60 -1 62
-26 83 -65 55z"/>
<path d="M3640 7834 c0 -30 40 -54 92 -54 40 0 35 33 -7 48 -19 6 -46 17 -60
24 -14 6 -25 -2 -25 -18z"/>
<path d="M3588 7730 c-7 -27 -20 -50 -30 -50 -10 0 -18 -18 -18 -40 0 -64 28
-47 65 40 41 93 42 100 15 100 -10 0 -25 -22 -32 -50z"/>
<path d="M3800 7731 c0 -17 -13 -31 -30 -31 -16 0 -30 -17 -30 -38 0 -56 -21
-102 -47 -103 -28 0 -103 -99 -76 -99 46 0 160 137 149 178 -8 33 -1 42 32 42
43 0 58 48 22 70 -11 7 -20 -2 -20 -19z"/>
<path d="M373 7607 c-22 -23 -15 -47 15 -47 15 0 38 14 52 30 26 31 -36 47
-67 17z"/>
<path d="M5886 7595 c-41 -53 -50 -103 -13 -73 26 22 35 22 42 3 5 -14 17 -25
27 -25 12 0 12 14 1 35 -9 19 -14 46 -9 60 5 14 1 25 -10 25 -10 0 -28 -11
-38 -25z"/>
<path d="M6044 7598 c-29 -11 -44 -31 -40 -51 10 -55 47 -52 73 5 29 64 26 68
-33 46z"/>
<path d="M8600 7592 c0 -40 24 -54 53 -29 38 31 34 48 -13 52 -22 1 -40 -9
-40 -23z"/>
<path d="M3704 7439 c-43 -39 -63 -113 -25 -90 10 7 33 -19 52 -57 22 -48 42
-66 63 -58 25 10 23 18 -16 47 -39 30 -42 40 -20 67 15 18 21 33 14 35 -6 1
-20 3 -30 5 -10 1 -26 10 -35 20 -10 11 -6 12 8 4 15 -9 30 -1 38 18 19 50 -2
54 -49 9z"/>
<path d="M4000 7441 c-27 -8 -48 -26 -44 -39 3 -17 -10 -21 -40 -12 l-46 12
46 -40 c25 -22 59 -35 75 -29 34 13 39 47 8 47 -12 0 -16 9 -9 20 7 12 20 16
29 11 9 -6 28 3 41 19 27 32 17 34 -60 11z"/>
<path d="M3569 7424 c-32 -21 -50 -81 -29 -94 20 -12 66 62 56 90 -3 11 -16
12 -27 4z"/>
<path d="M3500 7278 c-42 -12 -37 -14 30 -16 87 -3 63 -41 -26 -42 -60 0 -40
-32 31 -49 83 -21 108 -48 84 -92 -15 -29 -11 -42 21 -59 22 -12 45 -46 52
-76 8 -30 27 -69 43 -88 31 -36 29 -83 -17 -322 -27 -139 -17 -173 52 -174 22
0 70 92 70 135 0 15 11 47 25 70 14 23 61 110 105 193 49 93 100 162 130 176
30 15 50 42 50 68 0 27 17 50 45 60 45 17 64 -8 25 -32 -52 -32 -13 -53 84
-44 81 8 110 3 128 -22 19 -26 32 -28 71 -9 l47 22 -55 2 c-30 0 -55 9 -55 19
0 9 -29 24 -65 33 l-65 16 65 8 c101 12 76 42 -40 49 -165 9 -246 -19 -364
-127 -59 -53 -119 -97 -134 -96 -19 0 -17 8 8 27 19 14 35 38 35 52 0 20 -6
20 -30 0 -34 -28 -62 -15 -41 19 7 11 36 21 64 21 86 0 41 45 -52 52 -96 7
-123 22 -83 47 22 13 22 18 -1 29 -21 9 -21 15 -2 24 45 21 26 46 -45 59 -38
8 -70 25 -70 39 0 33 -57 46 -120 28z"/>
<path d="M3940 7285 c-16 -6 -40 -26 -53 -43 -30 -41 6 -67 56 -41 49 27 69
24 109 -16 47 -47 134 -53 208 -15 54 28 58 35 32 61 -33 33 -104 39 -122 9
-7 -11 2 -20 19 -20 17 0 31 -8 31 -17 0 -10 -34 -16 -75 -15 -50 2 -73 11
-70 29 4 14 -2 21 -12 15 -11 -7 -24 1 -30 17 -6 16 0 33 13 38 13 5 2 10 -26
10 -27 0 -63 -5 -80 -12z"/>
<path d="M3481 6992 c-16 -20 -16 -33 -2 -41 48 -30 17 -51 -58 -39 -142 23
-219 -181 -102 -271 32 -25 72 -81 90 -124 45 -113 101 -100 102 24 0 52 16
112 35 139 44 63 44 103 1 86 -30 -11 -32 1 -21 110 13 124 -3 166 -45 116z
m-11 -191 c6 -11 -11 -26 -39 -33 -28 -7 -51 -20 -51 -30 0 -10 -13 -18 -30
-18 -36 0 -40 72 -5 87 43 17 112 14 125 -6z"/>
<path d="M4571 6962 c-15 -24 41 -44 81 -29 25 10 26 16 5 29 -35 23 -72 22
-86 0z"/>
<path d="M5183 6883 c-24 -21 -43 -48 -43 -60 0 -13 -26 -23 -59 -23 -32 0
-65 -9 -72 -21 -8 -14 23 -19 94 -15 94 5 108 12 113 51 4 25 15 45 25 45 11
0 19 14 19 30 0 40 -25 38 -77 -7z"/>
<path d="M5029 6878 c-15 -25 29 -61 55 -45 9 5 16 22 16 38 0 34 -52 39 -71
7z"/>
<path d="M5290 6799 c-7 -10 -2 -19 10 -19 12 0 16 -10 9 -21 -9 -15 12 -17
64 -8 94 17 101 23 68 54 -21 20 -24 20 -13 0 17 -30 -7 -32 -76 -6 -32 13
-55 13 -62 0z"/>
<path d="M4274 6558 c13 -13 19 -34 13 -48 -6 -17 39 -32 147 -49 153 -23 276
-56 316 -83 11 -7 52 -20 90 -27 146 -29 147 -30 108 -73 -62 -68 -307 -17
-341 72 -11 28 -109 70 -165 70 -18 0 -42 -21 -53 -47 -20 -41 -18 -45 22 -38
35 7 54 -8 88 -69 27 -48 69 -88 108 -103 52 -20 58 -28 33 -45 -24 -17 -21
-20 15 -12 25 6 45 2 45 -8 0 -23 74 -24 89 0 18 29 152 46 180 23 14 -12 43
-16 63 -9 109 35 146 54 137 70 -6 10 0 18 15 18 19 1 18 5 -3 19 -50 32 -15
39 82 16 103 -23 157 -12 157 34 0 20 -11 25 -33 17 -26 -10 -31 -5 -21 21 12
32 -5 42 -61 34 -14 -1 -25 4 -25 13 0 9 -41 17 -90 18 -49 2 -101 12 -115 23
-14 11 -56 27 -95 35 -38 8 -93 27 -122 41 -29 15 -96 31 -150 36 -210 19
-328 39 -328 56 0 9 -29 17 -64 17 -47 0 -58 -6 -42 -22z"/>
<path d="M3184 6231 c-21 -134 -123 -376 -185 -440 -25 -25 -25 69 0 108 25
39 -39 83 -113 78 -31 -2 -76 3 -101 11 -45 15 -64 -14 -25 -38 11 -7 20 -28
20 -46 0 -41 236 -362 373 -507 454 -484 704 -657 950 -657 107 0 116 -9 184
-177 106 -261 156 -583 98 -627 -33 -24 -55 -125 -24 -105 8 5 13 -14 12 -41
-2 -28 -13 -50 -26 -50 -36 0 -73 57 -59 91 8 21 3 29 -13 24 -55 -18 -28
-124 40 -155 l64 -30 1 -211 c0 -124 13 -259 31 -330 39 -149 80 -199 57 -69
-29 163 -14 954 21 1120 62 296 136 476 188 457 26 -9 40 -9 34 2 -6 9 -1 21
12 25 14 5 17 25 8 53 -11 35 -20 40 -41 23 -22 -18 -29 -10 -34 38 l-6 60
-70 -33 c-38 -18 -76 -42 -84 -53 -8 -13 -28 -7 -51 14 -21 19 -54 34 -73 34
-19 0 -29 9 -22 20 8 13 25 13 50 0 21 -11 54 -20 74 -20 43 1 -45 79 -89 80
-14 0 -25 9 -25 20 0 11 -20 19 -45 18 -25 0 -34 -6 -20 -11 14 -6 25 -22 25
-37 0 -33 -140 18 -234 85 -34 25 -72 45 -83 45 -32 0 -285 260 -273 280 6 10
2 23 -10 30 -11 7 -20 2 -20 -11 0 -13 -17 -2 -38 24 -28 34 -32 51 -15 63 15
10 11 14 -11 10 -38 -7 -188 176 -220 267 -18 52 -76 95 -76 57 0 -74 252
-425 438 -610 81 -80 114 -126 100 -140 -13 -13 -25 -12 -35 4 -8 14 -57 43
-109 66 -88 39 -124 80 -71 80 13 0 7 18 -13 40 -28 31 -41 35 -53 15 -12 -18
-16 -19 -17 -1 0 32 -88 161 -140 206 -22 19 -40 45 -40 57 0 44 -86 125 -104
98 -13 -19 -21 -17 -37 9 -11 19 -31 46 -46 60 -14 14 -31 42 -38 61 -8 19
-22 35 -33 35 -24 0 6 111 42 156 22 26 21 29 -2 15 -21 -13 -20 -5 5 30 18
26 33 68 33 92 0 25 9 50 20 57 16 10 17 117 1 315 -5 65 -38 -12 -57 -134z
m1276 -1538 c0 -15 -16 -42 -37 -60 -34 -31 -36 -30 -27 27 8 59 64 87 64 33z"/>
<path d="M3493 6327 c-38 -32 -70 -44 -97 -36 -35 11 -37 8 -17 -29 23 -42 81
-59 81 -23 0 11 14 15 30 8 39 -15 90 27 90 74 0 57 -26 59 -87 6z"/>
<path d="M8394 6307 c-16 -15 22 -67 48 -67 10 0 18 18 18 40 0 38 -39 54 -66
27z"/>
<path d="M2667 6102 c19 -24 15 -27 -21 -18 -27 7 -43 3 -40 -10 2 -12 -7 -24
-21 -26 -14 -1 -34 -4 -44 -5 -11 -2 -25 -37 -33 -78 -8 -41 -24 -82 -36 -90
-16 -10 -15 -14 1 -15 18 0 18 -12 0 -50 -13 -27 -32 -48 -43 -46 -11 1 -36
-5 -55 -13 -41 -18 -27 -54 16 -38 34 13 37 -10 9 -82 -10 -28 -32 -51 -48
-51 -17 0 -64 -31 -106 -70 -42 -38 -87 -70 -101 -70 -14 0 -25 -15 -25 -32 0
-22 -12 -29 -37 -23 -20 5 -59 -7 -85 -27 -26 -21 -59 -37 -71 -38 -13 0 -52
-24 -86 -52 -35 -29 -60 -41 -57 -26 3 15 -14 30 -39 34 -25 4 -45 -3 -45 -15
0 -11 16 -21 35 -22 31 0 31 -4 -5 -31 -27 -20 -62 -26 -105 -18 -55 10 -65 6
-65 -27 0 -41 -35 -62 -107 -64 -40 -2 -40 -3 -4 -17 35 -14 36 -16 3 -29 -20
-7 -44 -8 -54 -2 -10 6 -18 3 -18 -8 0 -10 -14 -24 -31 -31 -21 -8 -26 -4 -16
13 8 14 -7 9 -34 -10 -27 -20 -69 -44 -94 -55 -25 -10 -45 -34 -45 -52 0 -25
-12 -29 -55 -20 -41 10 -47 8 -25 -7 24 -17 21 -20 -16 -21 -28 0 -41 -9 -33
-21 7 -12 -6 -27 -29 -33 -24 -6 -42 -27 -42 -48 0 -41 -14 -45 -115 -40 -52
3 -65 -4 -65 -36 0 -21 -11 -43 -25 -49 -14 -5 0 -11 31 -11 52 -2 54 -5 25
-34 -25 -25 -38 -27 -61 -8 -51 42 -105 -30 -61 -79 33 -36 32 -38 -2 -32 -60
9 -81 -16 -27 -31 l50 -14 -45 -15 c-48 -15 -62 -49 -20 -49 17 -1 15 -7 -5
-19 -17 -11 -37 -12 -47 -2 -21 21 -73 5 -73 -21 0 -10 18 -18 40 -18 58 0 49
-37 -12 -52 -45 -12 -50 -21 -40 -71 6 -33 2 -57 -10 -57 -11 0 -15 -8 -9 -19
12 -18 -50 -143 -98 -201 -14 -16 -31 -70 -37 -118 -6 -48 -21 -94 -32 -101
-12 -7 -28 -58 -35 -112 -7 -54 -25 -124 -40 -154 -22 -43 -23 -55 -3 -55 21
-1 20 -4 0 -17 -15 -9 -29 -34 -32 -54 -7 -46 -52 -64 -52 -21 0 41 -32 41
-48 0 -18 -46 -16 -48 37 -48 64 0 67 -10 46 -135 -13 -74 -27 -105 -49 -105
-25 0 -26 -6 -7 -29 14 -16 18 -39 10 -52 -7 -12 -13 -60 -13 -106 1 -47 -11
-97 -28 -116 -21 -22 -24 -37 -9 -46 11 -7 21 -3 21 9 0 12 9 17 20 10 25 -16
26 -90 1 -90 -10 0 -13 -32 -7 -71 7 -43 1 -91 -15 -121 -23 -43 -23 -53 2
-69 24 -15 23 -18 -6 -19 -33 0 -33 -4 -6 -45 18 -28 25 -70 19 -111 -6 -37
-1 -78 10 -92 27 -33 -4 -231 -40 -253 -15 -9 -20 -23 -13 -31 8 -8 5 -25 -6
-39 -14 -17 -11 -34 12 -57 17 -17 36 -57 41 -87 5 -30 14 -70 20 -88 5 -19 1
-39 -9 -45 -15 -9 -16 -112 -2 -152 2 -5 2 -18 1 -28 -2 -9 15 -12 38 -6 26 7
47 0 53 -18 14 -35 39 -37 45 -3 25 136 22 322 -6 365 -39 60 -40 167 -3 217
21 27 23 51 10 86 -25 66 -23 562 2 737 12 77 29 203 39 280 71 579 229 1040
490 1430 253 380 260 385 1200 859 77 39 171 94 209 121 38 28 119 77 180 110
120 65 165 157 222 454 20 106 27 117 100 149 55 24 72 41 59 57 -11 13 -14
30 -6 37 7 7 -19 11 -59 8 -59 -4 -67 -10 -48 -33z"/>
<path d="M3616 5996 c13 -13 24 -40 24 -60 0 -20 14 -36 32 -36 18 0 26 11 20
25 -7 14 -18 41 -24 60 -7 19 -27 35 -44 35 -25 0 -27 -5 -8 -24z"/>
<path d="M4346 5948 c-14 -37 35 -75 61 -49 22 22 2 81 -27 81 -12 0 -27 -14
-34 -32z"/>
<path d="M4929 5881 c-37 -15 -158 -150 -199 -221 -12 -21 -6 -20 23 5 70 61
226 -34 198 -121 -14 -44 -127 -76 -157 -46 -21 21 -219 -48 -231 -80 -3 -10
-26 -18 -50 -19 -54 -2 -150 -116 -115 -138 13 -8 70 -3 127 12 89 23 109 23
149 -4 26 -17 56 -25 66 -19 28 17 261 -12 249 -31 -5 -9 -36 -22 -68 -29 -32
-7 -62 -28 -65 -46 -4 -21 -27 -35 -56 -36 -243 -7 -240 -7 -240 -48 0 -31 12
-39 55 -36 109 7 165 -4 165 -32 0 -16 -25 -47 -55 -69 -52 -39 -54 -43 -25
-95 37 -68 86 -89 77 -33 -5 24 16 58 54 90 34 29 79 86 100 128 21 43 68 112
104 156 36 43 65 90 65 105 0 14 15 26 34 26 109 0 179 161 91 209 -30 16 -47
30 -38 30 52 3 -42 61 -97 61 -141 0 -186 123 -75 203 101 72 39 129 -86 78z
m-45 -522 c3 -11 33 -22 66 -25 61 -4 125 -46 103 -68 -6 -6 -52 -1 -101 11
-49 13 -113 23 -141 23 -28 0 -51 9 -51 20 0 11 14 20 30 20 17 0 30 9 30 20
0 26 55 26 64 -1z"/>
<path d="M6060 5871 c0 -41 39 -60 67 -32 17 17 15 27 -7 42 -42 26 -60 23
-60 -10z"/>
<path d="M3593 5796 c-16 -58 -17 -126 -1 -111 6 6 13 23 15 38 2 15 12 39 21
54 9 15 8 35 -3 46 -13 13 -24 4 -32 -27z"/>
<path d="M4104 5809 c-22 -25 -18 -29 25 -29 32 0 51 11 51 30 0 38 -42 38
-76 -1z"/>
<path d="M3711 5741 c-8 -12 -7 -21 1 -21 8 0 -6 -22 -31 -49 -26 -28 -55 -45
-64 -39 -9 6 -17 1 -17 -11 0 -27 66 -27 93 0 11 11 46 23 77 25 66 5 94 54
32 54 -23 0 -40 10 -37 23 7 30 -38 45 -54 18z"/>
<path d="M5220 5739 c0 -25 83 -58 109 -43 11 6 9 15 -5 19 -13 5 -19 17 -13
27 6 10 -12 18 -40 18 -28 0 -51 -9 -51 -21z"/>
<path d="M6980 5673 c0 -27 -5 -64 -12 -81 -8 -21 -1 -32 20 -32 36 0 47 128
12 150 -11 7 -20 -9 -20 -37z"/>
<path d="M3759 5578 c-33 -61 -13 -65 53 -8 55 47 56 50 14 50 -25 0 -55 -19
-67 -42z"/>
<path d="M4174 5528 l-36 -48 64 0 c47 0 58 6 43 25 -11 14 -23 35 -27 48 -5
13 -23 3 -44 -25z"/>
<path d="M2540 5422 c0 -12 8 -22 17 -22 9 0 28 -52 42 -115 51 -229 93 -308
223 -423 67 -60 155 -159 195 -220 79 -120 94 -139 183 -237 54 -60 69 -65
180 -65 89 0 124 -8 133 -30 6 -16 28 -30 47 -30 20 0 40 -9 43 -20 4 -11 19
-1 34 23 24 37 23 41 -4 31 -18 -7 -37 -4 -44 7 -6 10 2 19 17 19 16 0 34 18
40 40 13 51 35 50 94 -4 39 -36 45 -38 34 -9 -11 27 -5 34 21 28 19 -4 33 -16
32 -26 -2 -11 19 -30 47 -44 51 -24 51 -23 38 56 -14 89 -12 91 70 48 32 -17
68 -25 79 -18 11 6 25 -16 32 -50 13 -68 47 -83 47 -21 0 22 -9 40 -20 40 -11
0 -20 18 -20 40 0 22 9 40 20 40 39 0 20 95 -25 125 -101 65 -140 59 -306 -45
-200 -127 -389 -116 -509 30 -16 20 -93 86 -170 147 -322 256 -476 442 -470
567 2 36 2 75 0 86 -3 11 -4 27 -2 35 1 8 -6 15 -16 15 -10 0 -33 5 -50 12
-18 7 -32 2 -32 -10z m1536 -866 c36 -36 29 -72 -18 -87 -27 -8 -49 -3 -60 14
-10 15 -18 20 -18 11 0 -9 -10 -10 -21 -3 -14 8 -10 26 13 51 39 44 70 48 104
14z"/>
<path d="M5470 5309 c-11 -3 -63 -12 -115 -19 -114 -15 -123 -40 -20 -60 219
-41 521 -221 652 -389 104 -132 287 -530 403 -871 54 -160 66 -192 147 -380
24 -55 78 -199 121 -320 43 -121 105 -296 140 -390 34 -93 62 -208 62 -255 0
-53 19 -123 51 -182 70 -135 42 -179 -201 -314 -135 -76 -530 -180 -530 -140
0 19 49 100 70 116 13 9 13 15 0 15 -27 0 63 46 177 90 52 20 90 40 84 46 -5
5 -60 -11 -121 -36 -115 -47 -154 -43 -110 10 20 25 19 30 -7 30 -51 0 -68 56
-49 167 10 57 16 184 14 283 -3 99 -5 387 -6 640 -2 471 -24 634 -75 545 -11
-20 -13 -55 -6 -79 16 -49 15 -1357 -1 -1676 -5 -115 -20 -339 -31 -497 -12
-158 -17 -292 -11 -297 14 -15 92 -13 177 4 79 16 175 -26 175 -75 0 -68 218
-224 258 -184 5 5 -2 9 -16 9 -13 0 -19 9 -11 21 13 21 -61 99 -94 99 -9 0
-17 17 -17 39 0 21 -9 44 -20 51 -36 22 -21 70 21 70 23 0 36 9 29 20 -7 11
-3 20 9 20 11 0 21 14 21 30 0 55 -82 13 -104 -53 -14 -41 -82 -1 -71 41 8 31
-4 39 -69 48 -113 15 -118 51 -22 174 115 147 131 160 352 275 67 34 217 19
255 -26 13 -16 36 -29 50 -29 15 0 32 -17 38 -38 7 -21 26 -43 42 -50 16 -6
29 -30 29 -54 0 -33 9 -40 40 -32 52 13 52 -18 0 -46 -39 -21 -26 -104 16 -97
56 8 97 -10 117 -53 26 -55 10 -63 -59 -28 -29 14 -21 -1 26 -47 74 -72 126
-72 149 0 14 47 -18 157 -59 198 -25 24 -27 37 -9 48 33 20 5 59 -42 59 -27 0
-39 14 -39 45 0 29 -23 59 -64 85 -36 22 -87 54 -115 72 -28 17 -54 48 -58 69
-4 21 -20 47 -35 59 -34 25 -15 111 22 97 14 -5 31 -29 37 -53 14 -53 38 -32
46 42 4 36 -11 75 -44 113 -52 61 -51 120 3 163 42 33 34 62 -20 76 -26 6 -53
26 -60 44 -9 22 -4 29 15 22 32 -12 6 146 -27 166 -10 6 -10 23 -1 38 9 15 27
21 39 13 37 -23 25 20 -17 58 -21 19 -45 62 -52 96 -8 35 -29 64 -51 70 -21 5
-38 22 -38 37 0 43 80 21 122 -34 29 -37 37 -41 38 -14 0 38 -96 121 -122 105
-10 -6 -16 9 -13 35 3 28 -5 44 -20 41 -14 -3 -34 33 -47 85 -14 55 -34 90
-52 90 -15 0 -23 9 -16 20 7 11 39 20 73 20 53 0 57 3 30 30 -17 17 -40 30
-52 30 -11 0 -21 14 -21 30 0 17 -14 30 -31 30 -21 0 -29 15 -25 45 4 28 -4
43 -19 40 -14 -3 -25 9 -25 25 0 17 -10 30 -21 30 -12 0 -17 8 -11 17 6 9 -11
56 -36 105 -76 144 -85 186 -34 173 63 -17 50 9 -29 61 -43 28 -69 59 -66 80
3 19 -1 45 -9 58 -8 13 -6 29 6 36 37 23 22 67 -20 56 -31 -8 -40 -1 -40 34 0
25 -16 59 -35 74 -32 27 -32 28 10 19 62 -13 56 11 -16 65 -52 38 -57 50 -36
76 21 25 19 35 -13 59 -39 28 -38 29 5 40 25 6 45 19 45 27 0 25 -57 40 -71
19 -27 -45 -73 -19 -60 34 10 39 6 49 -14 42 -15 -6 -27 3 -28 22 -1 18 -8 48
-16 66 -10 24 -2 37 28 47 74 23 46 56 -38 45 -89 -12 -189 65 -259 201 -13
25 -32 40 -42 34 -10 -6 -30 6 -43 27 -13 22 -36 34 -51 29 -14 -6 -48 4 -75
22 -27 18 -64 32 -81 32 -18 0 -56 12 -86 27 -30 15 -63 25 -74 22z m1003
-3434 c-38 -36 -96 -91 -130 -123 l-61 -58 12 78 c12 76 39 114 69 96 8 -5 44
9 81 31 96 59 106 50 29 -24z"/>
<path d="M293 5287 c-19 -20 -16 -87 5 -87 18 0 42 47 42 82 0 21 -27 24 -47
5z"/>
<path d="M532 5268 c-19 -50 9 -74 39 -34 36 46 36 66 1 66 -15 0 -33 -14 -40
-32z"/>
<path d="M4030 5280 c-39 -17 -39 -18 5 -31 35 -11 40 -21 24 -50 -12 -24 -12
-41 1 -49 11 -7 16 -21 10 -30 -6 -9 -2 -23 8 -29 11 -6 25 -3 31 7 6 11 3 25
-8 31 -11 7 -13 31 -4 57 17 47 9 115 -13 113 -8 -1 -32 -10 -54 -19z"/>
<path d="M4444 5111 c3 -28 14 -48 25 -45 29 10 26 79 -4 89 -16 5 -23 -10
-21 -44z"/>
<path d="M5133 5040 c39 -78 89 -140 113 -140 23 0 -47 114 -101 165 l-46 43
34 -68z"/>
<path d="M3089 5044 c2 -19 26 -45 53 -59 26 -13 39 -25 29 -25 -11 0 15 -32
56 -71 55 -51 87 -68 119 -60 24 6 33 5 19 -1 -35 -16 -31 -49 10 -80 91 -69
87 0 -5 103 -39 44 -85 76 -102 73 -19 -4 -26 2 -19 15 7 11 0 21 -15 21 -16
0 -40 13 -54 30 -13 16 -32 25 -42 19 -10 -6 -13 2 -7 17 6 16 -2 34 -18 40
-19 7 -27 0 -24 -22z"/>
<path d="M2486 5003 c-2 -33 9 -71 25 -84 16 -13 29 -35 29 -48 0 -14 21 -65
47 -114 51 -96 72 -178 80 -317 3 -49 13 -106 22 -125 9 -22 5 -48 -10 -67
-17 -20 -19 -36 -7 -45 13 -8 14 -93 2 -243 -10 -126 -18 -252 -18 -280 0 -27
-10 -57 -23 -65 -17 -11 -15 -21 7 -35 27 -18 27 -24 -1 -45 -32 -26 -113
-267 -103 -310 3 -13 -10 -47 -28 -76 -26 -38 -28 -57 -11 -74 17 -17 23 -15
23 10 0 18 17 44 37 59 20 14 42 57 50 94 7 37 28 78 46 92 18 13 33 52 35 87
1 46 11 63 37 63 28 0 33 11 24 47 -7 26 -1 105 12 175 24 130 31 522 10 556
-6 11 -3 24 7 31 25 15 10 211 -17 238 -12 12 -21 35 -22 52 0 17 -18 67 -39
111 -21 44 -39 89 -40 100 -1 11 -28 51 -60 88 -32 38 -54 75 -49 83 5 8 -7
34 -26 58 l-35 43 -4 -59z"/>
<path d="M7560 5030 c0 -6 23 -20 51 -30 28 -11 46 -28 40 -39 -6 -10 -3 -24
9 -31 11 -7 20 8 20 36 0 34 -14 53 -45 61 -56 15 -75 16 -75 3z"/>
<path d="M480 4970 c0 -23 14 -31 45 -26 25 3 45 15 45 26 0 11 -20 23 -45 26
-31 5 -45 -3 -45 -26z"/>
<path d="M8091 4982 c-16 -26 7 -77 40 -90 46 -17 53 24 9 48 -23 12 -36 31
-29 41 6 10 7 19 1 19 -5 0 -15 -8 -21 -18z"/>
<path d="M5172 4835 c17 -52 40 -90 50 -84 32 20 19 69 -32 125 l-51 54 33
-95z"/>
<path d="M5271 4733 c-40 -29 -40 -27 29 -203 8 -22 16 -62 17 -89 0 -26 15
-56 32 -66 18 -10 26 -26 20 -37 -7 -11 -2 -33 12 -49 13 -16 19 -47 13 -69
-7 -26 0 -40 18 -40 15 0 28 -9 28 -20 0 -11 -9 -20 -21 -20 -14 0 -14 -12 -1
-37 11 -20 23 -60 27 -89 4 -29 13 -59 21 -67 8 -7 14 -34 14 -60 0 -32 9 -42
30 -34 17 6 30 20 30 30 0 11 -7 15 -16 10 -9 -6 -17 7 -19 28 -1 21 6 43 16
50 10 6 13 -3 7 -20 -7 -17 -3 -31 9 -31 19 0 15 76 -9 140 -7 17 -25 79 -41
139 -16 60 -36 118 -45 130 -9 11 -22 64 -29 116 -7 52 -21 110 -31 130 -10
19 -31 69 -46 110 -25 69 -31 73 -65 48z"/>
<path d="M5827 4724 c38 -60 130 -582 136 -768 3 -77 13 -118 32 -125 15 -6
22 -19 16 -29 -6 -11 -5 -23 4 -29 22 -13 27 442 5 526 -10 39 -27 105 -39
146 -11 41 -29 107 -39 146 -19 73 -73 149 -106 149 -10 0 -14 -7 -9 -16z"/>
<path d="M4840 4701 c0 -11 18 -29 40 -41 47 -25 19 -90 -47 -108 -28 -7 -34
-19 -24 -46 8 -20 20 -126 26 -236 6 -116 21 -216 37 -241 16 -23 30 -111 34
-205 6 -170 27 -219 85 -196 32 12 32 15 1 50 -31 34 -31 38 -1 50 22 8 29 24
20 47 -8 19 -17 107 -22 195 -6 143 -22 371 -37 540 -7 78 21 113 78 98 25 -6
52 -2 59 10 8 14 -5 22 -33 22 -26 0 -63 18 -81 40 -35 41 -135 56 -135 21z"/>
<path d="M4760 4663 c0 -9 -18 -38 -40 -63 -22 -25 -40 -60 -39 -78 0 -21 25
-5 70 46 76 86 85 112 39 112 -16 0 -30 -8 -30 -17z"/>
<path d="M1452 4621 c62 -60 137 -76 109 -23 -12 23 -29 41 -37 39 -8 -1 -18
0 -24 2 -64 25 -85 17 -48 -18z"/>
<path d="M8057 4616 c-15 -37 -6 -89 16 -89 31 0 37 65 7 83 -11 7 -21 10 -23
6z"/>
<path d="M8808 4538 c-33 -12 -31 -15 16 -28 30 -7 57 -26 60 -41 3 -16 16
-22 30 -13 37 23 -60 99 -106 82z"/>
<path d="M1350 4520 c-7 -11 2 -20 19 -20 38 0 191 -98 191 -123 0 -9 14 -17
30 -17 17 0 30 -7 30 -15 0 -8 29 -47 65 -87 193 -214 346 -470 412 -689 38
-126 63 -332 26 -219 -19 60 -163 314 -204 360 -19 22 -55 83 -79 135 -31 66
-56 95 -84 95 -38 0 -36 -72 3 -100 106 -76 382 -634 380 -769 l-1 -61 -36 73
c-20 40 -42 94 -50 120 -16 60 -68 128 -85 111 -7 -7 -3 -25 8 -39 46 -55 142
-378 131 -443 -7 -44 3 -86 31 -132 27 -45 38 -86 30 -119 -19 -82 -40 -89
-78 -26 -63 107 -289 160 -289 68 0 -9 -54 -42 -120 -75 -138 -67 -150 -98
-47 -117 74 -14 127 -51 127 -90 0 -11 9 -21 20 -21 31 0 24 29 -20 75 -56 61
-50 99 23 137 192 99 390 -70 319 -273 -14 -41 -15 -75 -2 -98 22 -43 20 -242
-4 -273 -9 -13 -19 -86 -21 -163 l-5 -141 -177 -23 c-97 -12 -335 -58 -528
-102 -193 -43 -429 -88 -523 -100 -494 -61 -571 -93 -471 -193 39 -39 34 -319
-6 -311 -14 3 -25 -9 -25 -26 0 -17 7 -27 16 -22 8 6 30 -17 49 -50 19 -32 26
-54 17 -48 -21 13 -43 -61 -25 -80 7 -7 14 -36 16 -66 1 -29 7 -160 13 -290 6
-131 19 -246 29 -256 35 -35 121 18 147 91 14 39 40 73 59 76 23 4 29 17 20
43 -12 35 -16 35 -45 6 -17 -17 -36 -26 -42 -21 -6 6 -16 -8 -24 -31 -21 -66
-55 -24 -41 51 8 42 5 68 -8 68 -39 0 -22 37 24 53 25 8 50 14 55 13 6 -2 21
19 33 46 19 39 18 48 -5 48 -15 0 -28 -10 -28 -22 0 -12 -13 -17 -29 -11 -17
6 -35 3 -42 -8 -18 -29 -49 -23 -49 11 0 17 18 30 40 30 48 0 52 25 10 60 -18
15 -26 41 -19 63 11 36 -6 46 -66 39 -14 -2 -19 9 -13 27 7 17 20 31 30 31 10
0 18 19 18 42 0 23 17 66 37 95 59 84 50 203 -15 203 -30 0 -42 -7 -29 -15 18
-11 16 -25 -5 -54 -31 -43 -32 -43 -37 34 -3 55 46 92 87 66 10 -6 25 16 32
49 7 33 26 60 42 60 34 0 38 -82 4 -116 -13 -13 -17 -24 -9 -24 23 0 73 54 73
77 0 33 82 81 114 69 17 -7 38 1 48 16 15 24 21 24 36 1 14 -22 25 -20 60 15
44 44 140 27 111 -19 -6 -10 3 -19 20 -19 20 0 31 18 31 50 0 55 26 62 109 30
45 -17 55 -13 74 29 13 27 33 43 49 37 22 -8 21 -16 -3 -40 -34 -33 -30 -69 7
-81 13 -5 24 8 24 28 0 50 91 93 125 59 37 -36 95 -54 95 -29 0 12 21 18 48
12 36 -6 45 -1 38 19 -6 16 -23 24 -37 19 -37 -15 -102 37 -71 56 13 8 36 4
51 -8 20 -17 29 -15 38 8 7 19 37 31 74 31 36 0 56 -8 49 -20 -7 -12 13 -20
49 -20 87 0 83 -72 -9 -149 -68 -57 -89 -123 -52 -162 96 -99 17 -305 -82
-216 -21 19 -52 27 -79 20 -25 -6 -56 -2 -70 10 -30 25 -67 6 -67 -34 0 -18
21 -29 56 -29 65 0 161 -58 99 -59 -19 -1 -35 -15 -35 -32 0 -17 11 -28 25
-26 14 3 43 -5 66 -17 26 -15 52 -16 70 -5 20 13 21 18 4 19 -14 0 -25 9 -25
20 0 31 72 24 100 -10 14 -16 49 -31 77 -32 29 0 42 -6 29 -11 -17 -7 -8 -26
25 -57 39 -35 48 -58 38 -98 -8 -31 -5 -52 8 -52 12 0 16 -28 9 -72 -16 -100
58 -56 95 57 30 89 50 107 87 76 15 -12 41 -16 57 -10 17 6 36 3 42 -7 7 -10
57 -14 112 -9 96 10 101 8 101 -37 0 -49 -10 -53 -153 -60 -34 -2 -45 -18 -51
-71 -9 -80 21 -80 60 0 29 58 64 54 64 -8 0 -52 29 -49 56 6 20 42 21 43 25 5
3 -34 5 -33 16 8 8 27 31 51 52 54 21 3 46 20 55 37 16 27 23 26 61 -10 l44
-40 15 40 c21 57 73 51 88 -9 10 -41 21 -47 60 -38 36 9 48 4 48 -20 0 -18 14
-32 30 -32 17 0 30 18 30 40 0 47 56 54 73 9 8 -20 24 -26 45 -18 56 24 168 9
195 -27 24 -32 26 -32 26 1 1 48 22 44 85 -15 30 -27 59 -50 65 -50 21 0 11
92 -13 116 -40 40 24 30 69 -11 36 -32 39 -32 58 0 24 44 137 48 137 5 0 -16
17 -30 39 -30 58 0 70 -38 18 -57 -44 -16 -44 -18 -7 -29 59 -16 229 -11 181
5 -44 16 -2 41 68 41 44 0 69 53 32 67 -14 5 -51 -3 -81 -19 -63 -32 -150 -37
-150 -8 0 11 -13 20 -30 20 -16 0 -30 8 -30 18 0 22 118 46 145 29 12 -7 15
-4 8 8 -20 32 26 40 125 22 59 -12 97 -9 116 6 21 18 33 16 52 -8 26 -33 270
-8 297 31 18 27 184 32 204 6 10 -13 12 -8 6 13 -7 19 -3 35 8 35 27 0 99 -75
100 -105 0 -14 13 -8 29 13 35 46 110 -18 110 -94 0 -115 43 -191 84 -150 22
22 33 45 25 53 -8 7 -18 2 -23 -12 -19 -53 -41 -21 -41 60 1 47 5 69 9 50 5
-19 22 -35 37 -35 37 0 36 10 -3 70 -17 27 -26 65 -19 87 7 22 3 45 -8 52 -38
24 -22 51 29 51 37 0 50 -11 50 -40 0 -22 9 -40 20 -40 11 0 17 20 15 45 -3
29 6 45 25 45 21 0 28 -17 24 -55 -3 -31 4 -55 17 -55 13 0 18 14 12 30 -7 17
-3 30 8 30 13 0 13 14 -1 40 -25 47 12 72 80 54 38 -10 49 6 42 60 -5 37 98
57 120 24 12 -18 14 -3 8 42 -6 39 -5 59 2 45 6 -14 20 -20 31 -13 12 7 10 22
-4 40 -19 23 -16 28 17 28 48 0 75 -31 43 -51 -15 -9 -13 -23 7 -46 15 -18 34
-49 40 -68 7 -19 27 -35 43 -35 35 0 41 31 10 51 -11 7 -16 28 -10 47 6 19 -2
52 -18 73 -44 58 -38 79 39 131 38 27 70 59 70 73 0 14 10 25 22 25 12 0 17
14 10 31 -6 17 -3 26 8 19 10 -6 35 7 54 29 51 60 142 55 158 -9 7 -27 20 -50
30 -50 26 0 22 75 -4 91 -13 8 -4 22 23 36 52 27 132 127 114 144 -47 48 -477
-171 -636 -324 -56 -53 -112 -101 -125 -105 -13 -4 -65 -42 -115 -83 -132
-110 -231 -154 -280 -123 -55 34 -79 30 -79 -14 0 -42 -145 -76 -223 -51 -24
8 -48 3 -56 -10 -10 -15 -111 -28 -281 -35 -182 -9 -262 -6 -253 8 15 25 -84
23 -124 -2 -58 -36 -167 -50 -155 -20 12 30 -12 35 -83 15 -36 -9 -41 -18 -23
-39 29 -36 -241 -40 -306 -6 -30 16 -53 16 -87 -3 -61 -32 -494 -9 -573 30
-31 15 -60 20 -66 12 -5 -9 -70 -1 -145 19 -110 28 -387 84 -660 133 -58 10
-59 70 -4 257 23 77 55 190 71 250 17 61 39 119 49 129 10 10 19 35 19 55 0
20 8 36 18 36 10 0 14 -20 9 -45 -6 -28 2 -20 21 20 17 36 38 65 47 65 22 0
131 235 139 300 6 42 16 88 37 165 2 8 5 32 6 54 2 21 16 51 32 67 16 16 24
35 17 42 -7 6 -2 12 11 12 14 0 23 37 23 98 0 61 10 102 25 107 41 14 30 122
-15 149 -36 22 -37 25 -4 25 20 1 31 9 25 19 -6 9 12 22 39 27 28 5 50 2 50
-8 0 -9 14 -17 31 -17 19 0 29 14 26 35 -12 82 26 181 93 242 38 35 75 88 81
118 6 30 23 82 38 115 42 98 56 185 31 200 -16 10 -15 22 3 43 19 24 19 33 -2
47 -47 29 -73 1 -78 -83 -5 -76 -34 -142 -171 -382 -29 -53 -49 -104 -42 -115
6 -10 -7 -35 -29 -54 -23 -19 -41 -49 -41 -67 0 -18 -22 -53 -50 -79 -58 -55
-65 -113 -15 -126 29 -8 28 -10 -6 -12 -30 -1 -50 -28 -77 -101 -38 -106 -122
-187 -130 -124 -11 88 3 199 37 301 123 366 179 905 137 1312 -24 237 -26 247
-42 263 -8 7 -14 41 -14 74 0 82 -103 353 -135 353 -31 0 -34 -54 -3 -64 12
-4 26 -78 32 -167 6 -87 24 -217 40 -289 61 -260 73 -808 23 -1059 -36 -183
-57 -75 -63 333 -6 378 -66 666 -138 666 -10 0 -13 20 -6 45 8 29 6 36 -5 20
-21 -30 -25 -26 -182 179 -199 261 -452 463 -493 396z m525 -3126 c-11 -34
-88 -42 -100 -10 -6 17 10 27 49 30 39 3 56 -4 51 -20z"/>
<path d="M4670 4355 c-18 -72 -23 -357 -7 -367 16 -9 57 118 57 176 0 18 -7
38 -15 43 -9 5 -14 51 -13 101 4 100 -5 118 -22 47z"/>
<path d="M1488 4271 c10 -69 112 -142 112 -80 0 20 9 26 25 17 14 -8 8 4 -13
28 -20 24 -45 39 -53 33 -9 -5 -22 -1 -29 11 -19 30 -47 24 -42 -9z"/>
<path d="M3093 4249 c6 -16 23 -29 37 -29 14 0 36 -13 50 -30 13 -16 33 -24
43 -18 19 12 -50 73 -107 94 -24 8 -31 4 -23 -17z"/>
<path d="M3660 4172 c0 -15 12 -37 26 -48 14 -12 28 -51 30 -88 9 -120 186
-249 210 -153 7 23 -6 38 -37 45 -30 8 -50 32 -59 72 -7 33 -25 60 -39 60 -30
0 -51 43 -51 102 0 25 -14 38 -40 38 -22 0 -40 -12 -40 -28z"/>
<path d="M1613 4166 c-28 -28 -10 -82 47 -146 50 -56 60 -60 60 -29 1 33 4 34
20 9 14 -21 19 -23 20 -4 0 14 -22 47 -50 72 -27 26 -50 56 -50 68 0 28 -30
47 -47 30z"/>
<path d="M3220 4100 c0 -11 18 -35 39 -54 21 -18 34 -41 28 -51 -6 -10 8 -23
31 -29 23 -6 48 -32 54 -58 7 -27 21 -48 32 -48 12 0 15 -22 7 -52 -10 -41 -4
-53 28 -62 44 -12 57 -46 17 -46 -14 0 -5 -14 20 -31 25 -18 39 -40 33 -50 -6
-11 -3 -19 8 -19 10 0 19 -32 19 -72 0 -75 41 -140 58 -93 5 14 22 25 38 25
15 0 28 9 28 20 0 11 -11 18 -25 15 -13 -3 -27 15 -31 40 -4 25 -15 45 -25 45
-11 0 -19 23 -19 50 0 28 9 50 20 50 11 0 4 18 -15 40 -18 22 -46 40 -62 40
-18 0 -24 14 -17 42 8 30 3 38 -17 30 -16 -6 -28 -4 -26 4 1 8 1 37 -1 65 -4
87 -222 283 -222 199z"/>
<path d="M1380 3980 c0 -10 72 -108 160 -219 88 -110 160 -209 160 -218 0 -17
147 -123 170 -123 32 0 1 61 -62 121 -40 38 -94 102 -119 142 -26 41 -65 80
-87 86 -25 8 -36 24 -29 43 7 18 2 27 -14 24 -15 -3 -30 12 -35 34 -13 63
-144 163 -144 110z"/>
<path d="M970 3876 c2 -32 18 -48 50 -53 45 -6 46 -5 17 39 -42 63 -71 68 -67
14z"/>
<path d="M5537 3835 c-25 -45 -5 -155 27 -155 39 0 34 81 -6 96 -8 4 -11 20
-5 35 9 23 -5 44 -16 24z"/>
<path d="M1013 3738 c-15 -72 -4 -98 41 -98 24 0 28 -14 19 -60 -7 -33 -5 -58
3 -55 43 14 143 -111 109 -137 -33 -25 -33 -27 2 -27 43 -1 177 -138 161 -165
-6 -9 -4 -16 6 -14 51 9 70 -5 60 -44 -9 -33 3 -47 59 -70 113 -48 194 -59
183 -26 -6 15 -25 25 -43 22 -18 -3 -34 4 -35 15 -2 12 -4 32 -5 46 -2 14 -23
34 -47 44 -24 11 -49 40 -55 65 -7 29 -27 46 -52 46 -28 0 -43 17 -52 60 -7
33 -19 60 -28 60 -9 0 -33 27 -52 60 -20 33 -46 60 -59 60 -13 0 -34 27 -48
60 -15 37 -40 60 -62 60 -21 0 -36 7 -34 15 7 29 -27 145 -43 145 -9 0 -22
-28 -28 -62z"/>
<path d="M3884 3740 c8 -70 76 -81 76 -11 0 28 -9 51 -20 51 -11 0 -20 -11
-20 -25 -1 -17 -7 -15 -21 5 -16 24 -20 20 -15 -20z"/>
<path d="M675 3693 c-25 -60 -19 -152 7 -107 11 19 18 60 14 90 -5 45 -8 48
-21 17z"/>
<path d="M7127 3589 c-15 -40 -1 -53 40 -37 41 16 42 40 2 56 -17 6 -35 -2
-42 -19z"/>
<path d="M4922 3552 c-18 -21 -13 -29 24 -36 34 -7 47 1 49 28 3 43 -40 48
-73 8z"/>
<path d="M3880 3506 c0 -33 36 -32 100 3 49 27 48 27 -25 25 -47 -1 -75 -12
-75 -28z"/>
<path d="M633 3487 c-22 -23 -14 -147 9 -147 13 0 18 18 12 40 -6 22 -2 40 8
40 10 0 18 10 18 21 0 12 -9 16 -20 9 -11 -7 -20 -4 -20 7 0 11 11 24 25 30
14 5 15 11 3 11 -12 1 -27 -4 -35 -11z"/>
<path d="M1455 3441 c25 -24 45 -55 45 -71 0 -27 142 -190 165 -190 29 0 -16
86 -67 129 -65 54 -72 71 -28 71 33 0 170 -126 170 -157 0 -12 12 -28 26 -37
14 -9 78 -76 142 -150 157 -179 224 -199 109 -33 -20 29 -37 66 -37 81 0 15
-10 38 -22 50 -13 13 -33 44 -46 69 -14 27 -39 44 -58 41 -19 -3 -34 3 -34 14
0 11 -31 35 -70 53 -38 19 -70 42 -70 51 0 10 -10 18 -22 18 -24 0 -162 61
-178 79 -5 6 -23 14 -40 17 -19 5 -14 -8 15 -35z"/>
<path d="M7531 3415 c13 -55 -18 -80 -38 -30 -6 15 -10 11 -11 -10 -1 -22 13
-35 37 -35 56 0 68 33 31 85 l-32 45 13 -55z"/>
<path d="M3578 3378 c-18 -11 -19 -18 -4 -18 13 0 26 -18 30 -40 5 -36 8 -36
29 9 25 55 -4 81 -55 49z"/>
<path d="M7661 3371 c-23 -27 -22 -30 6 -19 25 9 30 4 21 -20 -8 -21 -2 -32
18 -32 17 0 34 -10 38 -23 5 -13 18 -19 31 -15 14 5 1 34 -32 75 -49 60 -58
63 -82 34z"/>
<path d="M3112 3328 c-18 -46 -14 -62 7 -29 15 24 24 18 43 -30 25 -59 25 -59
34 -10 4 27 -2 53 -14 57 -12 4 -17 16 -11 26 6 10 -2 18 -18 18 -16 0 -34
-14 -41 -32z"/>
<path d="M4014 3308 c6 -18 -1 -40 -16 -50 -22 -13 -19 -17 12 -17 69 0 102
31 71 67 -34 42 -84 42 -67 0z"/>
<path d="M4859 3239 c-1 -16 -6 -49 -10 -74 -12 -62 8 -57 32 8 14 37 14 60 0
74 -15 15 -21 12 -22 -8z"/>
<path d="M687 3188 c-14 -35 44 -104 67 -81 8 8 3 23 -12 32 -18 11 -20 20 -4
30 32 20 27 51 -9 51 -16 0 -36 -14 -42 -32z"/>
<path d="M6013 3207 c-27 -28 -14 -147 17 -147 22 0 30 22 30 80 0 75 -16 98
-47 67z"/>
<path d="M5803 2982 c-2 -158 4 -213 25 -230 23 -18 24 -45 8 -146 -12 -68
-15 -140 -7 -159 7 -20 18 -230 23 -466 6 -237 18 -467 27 -511 l16 -80 4 80
c12 281 -4 1097 -27 1360 -3 33 -7 99 -9 146 -1 48 -11 81 -22 75 -10 -7 -22
22 -26 64 -5 41 -10 -19 -12 -133z"/>
<path d="M829 3116 c39 -22 39 -23 0 -38 -33 -13 -31 -15 16 -17 35 0 55 -12
55 -31 0 -45 34 -36 46 12 19 70 -5 98 -83 97 -64 0 -68 -3 -34 -23z"/>
<path d="M4680 3064 c0 -14 -29 -24 -70 -24 -38 0 -70 -9 -70 -20 0 -25 120
-26 160 -1 24 15 25 24 5 44 -19 19 -25 19 -25 1z"/>
<path d="M1048 2915 c5 -69 10 -132 11 -140 4 -52 41 -2 41 55 0 42 10 70 25
71 14 0 9 9 -10 21 -19 11 -35 42 -35 69 0 27 -9 49 -21 49 -14 0 -18 -45 -11
-125z"/>
<path d="M593 2985 c-9 -15 -11 -51 -5 -80 7 -30 17 -100 23 -155 14 -117 11
-113 87 -120 77 -6 94 37 30 79 -27 18 -44 41 -38 50 5 10 -2 31 -18 46 -16
16 -36 68 -46 117 -11 56 -23 79 -33 63z"/>
<path d="M1312 2985 c-24 -24 -11 -45 27 -45 21 0 44 -8 50 -19 26 -41 411
-70 411 -31 0 16 -10 30 -21 30 -12 0 -16 9 -9 21 9 14 -39 16 -146 9 -118 -9
-178 -5 -230 17 -39 16 -76 24 -82 18z"/>
<path d="M4871 2985 c-19 -20 -12 -145 9 -145 11 0 18 11 15 25 -6 30 86 46
103 18 8 -13 24 -14 43 -2 24 15 23 18 -7 19 -20 0 -32 7 -26 16 26 43 -99
107 -137 69z"/>
<path d="M865 2967 c-14 -6 -25 -19 -25 -30 0 -26 81 -13 82 13 1 23 -23 30
-57 17z"/>
<path d="M8908 2929 c-7 -28 -7 -56 0 -63 6 -7 12 7 12 31 0 30 12 43 40 43
22 0 40 9 40 20 0 45 -80 19 -92 -31z"/>
<path d="M968 2906 c8 -25 5 -62 -7 -84 -24 -44 6 -79 32 -37 30 48 28 110 -6
137 -29 25 -31 23 -19 -16z"/>
<path d="M4409 2893 c-7 -28 -7 -60 -1 -70 7 -11 4 -26 -8 -33 -44 -27 -24
-153 25 -146 47 6 51 36 27 204 -14 97 -26 111 -43 45z"/>
<path d="M3535 2906 c-31 -5 -55 -21 -55 -37 0 -39 20 -36 80 11 28 22 46 38
40 37 -5 -2 -35 -7 -65 -11z"/>
<path d="M6432 2788 c-7 -17 -12 -61 -12 -97 0 -36 -13 -98 -30 -138 -38 -91
-38 -133 0 -133 41 0 90 133 120 325 13 80 -50 115 -78 43z"/>
<path d="M1187 2765 c0 -14 12 -25 26 -25 15 0 27 -9 27 -21 0 -26 239 -8 267
20 32 32 14 36 -159 44 -120 5 -161 1 -161 -18z"/>
<path d="M3085 2752 c-36 -11 -65 -32 -65 -46 0 -34 30 -33 65 2 16 16 50 32
77 35 32 5 38 11 18 18 -16 6 -59 2 -95 -9z"/>
<path d="M4629 2665 c-29 -68 -27 -86 8 -65 53 31 103 73 103 87 0 30 -97 10
-111 -22z"/>
<path d="M4420 2562 c0 -23 8 -42 17 -42 10 0 13 -22 8 -50 -5 -27 -22 -50
-37 -50 -16 0 -28 -10 -28 -21 0 -12 20 -19 45 -15 52 7 70 195 20 211 -15 5
-25 -9 -25 -33z"/>
<path d="M4076 2530 c-12 -28 -31 -50 -41 -50 -11 0 -14 -13 -8 -30 8 -20 -1
-30 -26 -30 -21 0 -45 -10 -52 -21 -7 -12 -26 -17 -42 -11 -16 7 -24 4 -18 -6
37 -60 191 4 191 80 0 8 18 21 40 28 47 15 53 61 9 77 -20 8 -38 -5 -53 -37z"/>
<path d="M6420 2386 c0 -11 -22 -16 -50 -11 -29 6 -50 0 -50 -13 0 -28 93 -29
111 -1 7 12 8 27 1 34 -7 6 -12 2 -12 -9z"/>
<path d="M3030 2340 c-7 -11 -30 -20 -51 -20 -22 0 -39 -8 -39 -19 0 -10 -19
-24 -42 -32 -23 -7 -34 -20 -25 -29 27 -24 167 -44 167 -23 0 11 27 28 60 40
37 13 60 35 60 57 -1 31 -4 31 -20 6 -17 -26 -19 -25 -20 5 0 38 -69 49 -90
15z"/>
<path d="M1468 2325 c-38 -25 -26 -81 15 -70 21 5 37 27 37 47 0 40 -16 47
-52 23z"/>
<path d="M585 2285 c-4 -71 38 -125 88 -112 43 10 47 5 47 -69 0 -43 13 -105
29 -135 16 -31 24 -63 19 -72 -6 -9 6 -11 26 -4 29 11 31 8 11 -14 -34 -37
-31 -59 6 -59 17 0 26 -9 19 -20 -8 -13 5 -13 40 0 67 25 76 25 59 -2 -10 -16
-3 -16 27 0 23 12 73 22 112 22 97 0 293 45 242 56 -22 5 -50 16 -62 26 -30
25 -92 0 -74 -29 8 -13 0 -12 -19 3 -31 26 -95 27 -115 2 -20 -25 -100 -41
-100 -19 0 11 19 21 41 21 24 0 36 9 28 21 -7 12 -26 17 -41 11 -15 -6 -28 -2
-28 9 0 10 -10 19 -22 19 -12 0 -17 -13 -11 -30 7 -18 0 -30 -17 -30 -19 0
-24 12 -16 33 8 21 5 29 -8 21 -25 -16 -72 33 -53 53 12 11 -2 48 -76 198 -9
19 -17 49 -17 66 0 23 -12 28 -40 19 -27 -8 -44 -2 -52 19 -16 42 -41 39 -43
-4z"/>
<path d="M4351 2256 c-17 -55 -25 -138 -12 -123 33 41 58 126 40 138 -11 6
-23 0 -28 -15z"/>
<path d="M8400 2160 c45 -35 120 -54 120 -31 0 15 -78 53 -126 62 -42 7 -42 6
6 -31z"/>
<path d="M3200 2138 c0 -12 -20 -38 -45 -59 l-45 -36 77 17 c94 21 105 31 73
70 -29 35 -60 39 -60 8z"/>
<path d="M3705 2048 c26 -57 55 -63 55 -10 0 20 -17 42 -39 47 -34 9 -36 5
-16 -37z"/>
<path d="M1184 1996 c-34 -34 -30 -56 12 -56 22 0 35 15 35 40 0 46 -13 50
-47 16z"/>
<path d="M3300 1990 c0 -19 -20 -31 -55 -32 -48 -2 -45 -5 22 -22 90 -24 123
-1 70 49 -31 29 -37 30 -37 5z"/>
<path d="M4283 1927 c4 -20 21 -37 37 -37 43 0 37 58 -7 67 -27 5 -35 -3 -30
-30z"/>
<path d="M1710 1869 c-77 -15 -221 -42 -320 -60 -99 -17 -216 -39 -260 -49
-262 -56 -352 -71 -560 -93 -118 -12 -221 -45 -146 -46 19 -1 104 9 189 22
116 17 157 17 163 0 5 -15 17 -13 37 7 16 17 49 31 73 32 86 3 171 18 366 66
174 43 210 49 474 86 143 20 226 39 210 49 -33 21 -56 20 -226 -14z"/>
<path d="M3460 1780 c39 -25 94 -25 110 0 7 12 -18 20 -64 20 -56 -1 -68 -6
-46 -20z"/>
<path d="M6937 1687 c-19 -5 -38 -21 -44 -36 -8 -21 4 -22 58 -6 37 12 63 29
57 38 -11 18 -17 18 -71 4z"/>
<path d="M4172 1548 c-16 -42 -16 -42 18 -55 22 -9 30 2 30 38 0 55 -29 66
-48 17z"/>
<path d="M7818 1531 c-6 -5 -68 -22 -139 -37 -157 -33 -299 -117 -299 -177 0
-43 -15 -44 -132 -7 -30 9 -46 3 -55 -19 -7 -19 -4 -28 7 -21 11 7 20 2 20
-11 0 -23 -10 -22 -138 14 -34 9 -44 6 -34 -10 19 -31 -77 -67 -138 -51 -36 9
-55 -1 -81 -41 -39 -59 -26 -90 21 -51 20 17 30 18 30 2 0 -12 25 -23 55 -24
31 -2 0 -14 -69 -27 -68 -14 -147 -40 -174 -58 -63 -41 -179 -43 -219 -3 -17
17 -40 30 -52 30 -11 0 -22 20 -22 45 l-2 45 -18 -47 c-14 -34 -31 -45 -59
-37 -25 6 -35 2 -27 -11 8 -14 -11 -16 -58 -7 -74 14 -95 -6 -95 -90 0 -44 17
-46 123 -15 73 22 82 20 134 -30 51 -49 77 -56 295 -75 131 -11 302 -27 381
-35 191 -20 226 -5 156 66 -43 42 -104 44 -69 1 17 -20 18 -30 3 -30 -12 0
-36 21 -53 47 -30 45 -248 79 -220 34 5 -10 -16 -8 -47 4 -41 16 -55 32 -48
58 11 44 14 44 65 12 33 -21 62 -17 169 20 157 55 222 61 155 14 -56 -40 -56
-82 1 -109 42 -21 43 -20 8 8 -38 30 -28 83 12 59 49 -30 137 -22 126 11 -7
22 -1 19 19 -7 26 -34 26 -41 2 -55 -17 -9 -24 -34 -19 -61 9 -41 5 -39 -44
15 -38 43 -49 49 -39 20 8 -22 19 -56 25 -75 11 -41 18 -42 141 -13 150 35
148 32 93 91 -165 178 -1 363 169 189 85 -87 63 -262 -34 -262 -25 0 -24 -7 7
-41 29 -32 32 -52 17 -94 -22 -64 -80 -83 -94 -31 -7 25 -10 21 -12 -15 -1
-28 9 -62 22 -75 30 -30 5 -56 -29 -29 -14 11 -42 14 -64 6 -36 -13 -36 -15
-2 -28 19 -7 31 -25 25 -40 -6 -15 11 -52 38 -83 47 -55 71 -230 31 -230 -66
0 -153 177 -114 233 62 87 -3 107 -169 52 -176 -57 -445 -83 -489 -46 -16 14
-38 19 -50 12 -11 -7 -26 11 -33 39 -10 40 -21 48 -52 39 -26 -8 -37 -4 -35
14 5 41 -23 117 -43 117 -10 0 -18 -16 -18 -35 0 -19 -22 -62 -49 -95 l-48
-60 -82 88 c-77 81 -85 85 -109 51 -63 -86 102 -244 174 -167 37 40 38 40 145
-21 117 -66 160 -75 176 -36 6 15 10 12 11 -9 3 -48 107 -116 228 -147 57 -15
172 -50 254 -79 86 -30 170 -47 197 -40 35 9 49 2 57 -29 18 -68 166 -50 166
20 0 65 116 132 157 89 31 -33 30 -35 -13 -24 -38 9 -42 6 -23 -18 19 -23 16
-28 -19 -28 -23 0 -42 -7 -42 -15 1 -54 43 -61 357 -62 256 0 320 5 294 24
-32 23 -32 68 -2 139 25 56 -8 68 -46 18 -41 -54 -93 -43 -98 21 -2 24 -19 56
-39 70 -45 33 -7 64 80 65 92 0 176 54 165 106 -5 24 -25 121 -44 214 -18 94
-50 209 -70 257 -56 132 -49 162 23 93 42 -40 60 -48 60 -27 0 47 -155 152
-206 140 -21 -5 -122 217 -119 260 2 28 -8 30 -70 13 -76 -21 -99 -3 -126 94
-10 37 -78 65 -101 41z m-105 -166 c68 14 97 13 114 -6 18 -19 15 -22 -12 -13
-84 30 -129 -44 -56 -90 29 -18 33 -31 18 -50 -16 -19 -15 -26 6 -26 15 -1 50
-19 77 -42 l50 -41 -50 14 c-27 8 -53 22 -57 32 -3 9 -19 17 -35 17 -15 0 -28
14 -28 32 0 23 -13 28 -55 20 -43 -9 -63 -1 -89 36 -35 48 -28 152 8 116 11
-11 53 -11 109 1z m332 -115 c30 -55 54 -121 55 -146 0 -26 8 -41 19 -35 10 6
24 3 31 -9 7 -11 -9 -20 -39 -20 -28 0 -51 9 -51 20 0 11 -11 20 -25 21 -30 0
-140 235 -123 262 25 41 80 2 133 -93z m-605 -50 c16 -30 15 -40 -4 -42 -14 0
-42 -4 -61 -8 -29 -5 -31 0 -13 34 18 33 16 38 -15 32 -27 -5 -35 -22 -31 -64
5 -46 0 -55 -26 -45 -19 7 -43 13 -54 13 -11 0 -16 19 -10 42 8 31 4 38 -19
30 -17 -7 -43 -12 -59 -12 -42 0 -34 -39 17 -81 40 -33 41 -38 9 -38 -20 -1
-51 13 -68 31 -18 17 -49 27 -69 21 -55 -14 -45 2 24 37 33 18 56 39 50 49 -6
9 35 18 91 18 56 0 107 6 114 12 26 26 104 8 124 -29z m-437 -41 c-50 -41 -83
-50 -83 -22 0 18 76 60 110 61 11 0 -1 -17 -27 -39z m357 -88 c0 -6 -27 -24
-60 -41 -59 -30 -82 -3 -30 35 22 16 90 20 90 6z m660 -31 c43 -22 90 -40 105
-40 14 0 39 -38 56 -85 27 -79 33 -85 95 -78 l65 6 -50 -50 c-27 -27 -66 -54
-85 -59 -29 -7 -27 -10 8 -12 24 -1 50 -13 58 -25 10 -16 4 -20 -18 -11 -39
15 -26 -32 29 -104 49 -63 47 -147 -5 -194 -53 -48 -88 -10 -109 119 -18 110
-87 279 -177 432 -96 164 -96 164 28 101z m-60 -295 c26 -52 54 -111 64 -131
25 -51 -4 -89 -35 -46 -16 22 -30 27 -38 13 -7 -11 10 -31 38 -44 28 -13 49
-33 47 -45 -3 -12 12 -47 32 -78 50 -74 26 -92 -49 -36 -46 33 -76 41 -120 32
-37 -8 -59 -5 -59 8 0 12 13 22 29 22 50 0 57 42 13 73 -24 16 -38 38 -32 47
6 10 -4 26 -22 36 -26 15 -28 22 -7 35 16 9 30 7 34 -7 11 -32 65 -31 64 1 0
14 -13 42 -30 64 -43 57 -36 151 12 151 7 0 34 -43 59 -95z m-60 -396 c0 -29
-82 -92 -142 -110 -96 -27 -139 -24 -126 9 19 48 268 142 268 101z m267 -162
c-15 -6 -5 -27 25 -57 26 -27 47 -60 46 -74 -1 -21 -3 -21 -12 0 -8 20 -16 20
-38 2 -23 -18 -38 -15 -73 14 -30 26 -36 27 -19 5 21 -27 18 -34 -20 -44 -25
-6 -51 -1 -60 13 -11 18 -23 19 -53 0 -26 -15 -44 -17 -58 -3 -40 40 -2 91 92
121 83 27 227 47 170 23z"/>
<path d="M2980 1462 c0 -25 13 -42 31 -42 19 0 29 14 25 33 -9 51 -56 57 -56
9z"/>
<path d="M8520 1484 c0 -27 81 -86 102 -73 10 7 -3 29 -29 51 -53 41 -73 47
-73 22z"/>
<path d="M4765 1467 c-14 -6 -25 -17 -25 -25 0 -20 118 -2 131 20 12 19 -63
22 -106 5z"/>
<path d="M1570 1160 c-7 -11 -3 -20 8 -20 11 0 35 -25 53 -55 17 -30 27 -40
22 -22 -6 17 -1 41 11 53 11 11 14 30 7 42 -17 28 -84 29 -101 2z"/>
<path d="M320 1045 c1 -69 6 -87 20 -65 26 40 26 160 0 160 -11 0 -20 -43 -20
-95z"/>
<path d="M2665 1088 c20 -19 155 -24 155 -5 0 9 -37 17 -83 17 -46 0 -78 -5
-72 -12z"/>
<path d="M812 1037 c-36 -42 -35 -42 15 -33 33 7 55 0 62 -18 6 -16 20 -23 31
-16 11 7 20 -1 20 -17 0 -16 -11 -34 -25 -40 -19 -7 -18 -15 5 -31 26 -18 25
-21 -7 -22 -38 0 -37 -42 2 -55 21 -7 50 53 56 115 1 17 9 46 18 65 40 91
-107 133 -177 52z"/>
<path d="M7520 1042 c0 -21 18 -42 41 -48 23 -6 47 -30 53 -53 6 -22 23 -41
38 -41 42 0 34 32 -22 92 -27 30 -50 62 -50 71 0 9 -13 17 -30 17 -16 0 -30
-17 -30 -38z"/>
<path d="M3862 1029 l-68 -23 67 -13 c37 -8 75 -5 87 7 36 36 -15 54 -86 29z"/>
<path d="M1069 1002 c9 -26 -1 -48 -30 -68 -27 -19 -34 -35 -20 -43 12 -8 16
-23 9 -34 -7 -12 3 -18 25 -14 24 5 39 28 43 64 5 39 16 53 35 45 16 -6 29 -2
29 9 0 10 -13 19 -30 19 -16 0 -30 14 -30 30 0 17 -10 30 -21 30 -12 0 -16
-17 -10 -38z"/>
<path d="M637 985 c-2 -8 -5 -37 -7 -65 -2 -27 -10 -77 -17 -110 l-12 -60 23
55 c14 32 39 55 61 55 21 0 32 9 25 20 -7 11 8 21 34 21 l46 2 -45 18 c-25 10
-45 32 -45 48 0 31 -57 45 -63 16z"/>
<path d="M5788 912 c-7 -19 -35 -32 -70 -32 -55 0 -73 -18 -45 -46 7 -8 23 -6
35 4 12 9 54 23 92 31 52 10 62 8 40 -7 -18 -13 -21 -22 -6 -22 13 0 29 9 36
19 7 12 30 13 56 3 24 -10 51 -18 59 -20 8 -1 22 -3 30 -4 8 -1 35 -1 58 1 35
3 42 -5 34 -36 -8 -30 -2 -39 26 -35 55 8 62 92 7 92 -23 0 -37 8 -31 18 6 10
-7 14 -29 8 -22 -6 -51 -2 -65 10 -49 40 -213 52 -227 16z"/>
<path d="M1111 816 c-21 -12 -71 -26 -110 -30 -102 -10 -126 -22 -107 -51 9
-14 16 -42 16 -63 0 -21 11 -42 23 -46 14 -5 20 6 15 28 -19 81 86 127 264
116 76 -5 87 -1 65 20 -41 38 -122 51 -166 26z"/>
<path d="M5721 745 c0 -44 92 -112 130 -97 38 14 37 52 -1 52 -16 0 -48 18
-70 40 -49 49 -60 50 -59 5z"/>
<path d="M718 700 c-38 -33 -58 -60 -45 -60 12 0 33 14 47 30 14 17 40 26 59
20 23 -7 32 2 32 30 0 54 -14 51 -93 -20z"/>
<path d="M532 645 c17 -70 47 -108 72 -92 13 7 15 -6 7 -35 -10 -35 -8 -40 6
-19 29 41 126 52 110 12 -13 -35 43 -44 63 -11 7 11 30 20 51 20 22 0 39 10
39 22 0 11 -25 18 -55 15 -30 -3 -66 1 -80 10 -14 9 -62 16 -106 17 l-82 1 43
45 c37 40 38 46 9 57 -69 27 -90 15 -77 -42z"/>
<path d="M1445 687 c-14 -6 -20 -29 -14 -54 15 -61 -55 -130 -149 -145 -55 -9
-84 -26 -99 -60 -14 -29 -39 -48 -65 -48 -36 0 -138 -82 -138 -111 0 -24 55
-4 85 31 19 22 57 40 84 40 27 0 55 10 62 22 7 12 52 38 99 58 49 21 92 55
100 79 7 22 26 41 41 41 16 0 29 19 29 43 0 24 15 60 33 80 35 39 -1 51 -68
24z"/>
<path d="M6180 633 c0 -34 -89 -82 -125 -68 -45 17 -83 -16 -67 -58 14 -36 15
-36 35 -1 15 27 34 33 77 24 47 -10 64 -3 91 39 18 28 41 46 51 40 10 -6 18
-3 18 8 0 10 -14 24 -32 31 -44 17 -48 16 -48 -15z"/>
<path d="M6991 622 c-13 -22 25 -53 84 -67 69 -17 74 20 7 54 -70 36 -76 37
-91 13z"/>
<path d="M5380 605 c1 -32 33 -59 85 -72 30 -8 53 -20 52 -28 -9 -44 29 -78
75 -70 48 10 48 12 14 43 -119 107 -227 168 -226 127z"/>
<path d="M1851 561 c-20 -32 7 -101 39 -101 46 0 51 33 11 78 -23 27 -42 36
-50 23z"/>
<path d="M1595 485 c-54 -12 -43 -79 15 -90 42 -8 50 -2 50 37 0 52 -15 64
-65 53z"/>
<path d="M952 369 c-17 -17 -38 -42 -47 -55 -8 -14 -40 -36 -71 -50 -31 -13
-51 -33 -44 -44 21 -33 170 74 170 123 0 9 14 17 30 17 17 0 30 9 30 20 0 30
-33 24 -68 -11z"/>
<path d="M1840 350 c-50 -53 -47 -79 7 -58 18 7 33 26 33 43 0 25 5 26 32 3
28 -23 32 -22 25 11 -11 57 -44 57 -97 1z"/>
<path d="M1705 347 c-14 -6 -25 -20 -25 -32 0 -12 -14 -38 -32 -57 -30 -33
-27 -35 50 -34 45 0 82 9 82 18 0 10 -18 18 -40 18 -39 0 -39 2 -8 50 32 48
25 58 -27 37z"/>
<path d="M4147 347 c-31 -12 -9 -87 25 -87 17 0 28 21 28 50 0 50 -9 56 -53
37z"/>
<path d="M5380 271 c0 -16 7 -33 16 -38 26 -16 70 20 55 45 -19 32 -71 27 -71
-7z"/>
<path d="M2680 198 c0 -48 47 -42 56 9 4 19 -6 33 -25 33 -18 0 -31 -17 -31
-42z"/>
<path d="M4790 200 c7 -11 23 -20 36 -20 13 0 37 -29 53 -65 33 -75 68 -115
102 -115 14 0 18 13 9 35 -9 19 -20 55 -25 80 -5 25 -17 45 -27 45 -9 0 -12
16 -6 35 10 32 9 32 -16 2 -24 -28 -32 -29 -65 -5 -45 33 -79 37 -61 8z"/>
<path d="M1880 161 c0 -16 68 -40 115 -41 14 0 25 10 25 23 0 13 -5 18 -12 12
-6 -6 -37 -4 -70 5 -32 10 -58 10 -58 1z"/>
<path d="M1271 142 c-13 -22 38 -67 56 -48 7 7 13 25 13 39 0 30 -52 37 -69 9z"/>
<path d="M6294 138 c-24 -14 -32 -34 -23 -62 9 -29 5 -38 -14 -32 -15 5 -27
19 -27 32 0 40 -44 71 -61 43 -9 -16 1 -39 27 -60 23 -19 37 -40 30 -47 -7 -6
161 -12 374 -12 360 0 506 16 253 28 -89 4 -119 15 -153 53 -41 47 -42 48 -30
5 10 -37 2 -46 -57 -57 -70 -13 -193 32 -193 72 0 36 -33 19 -60 -32 -24 -44
-30 -46 -46 -17 -10 18 -11 38 -1 45 15 12 34 64 22 62 -3 0 -21 -10 -41 -21z"/>
<path d="M8551 114 c8 -33 4 -66 -11 -84 -21 -25 -16 -30 35 -30 70 0 71 70 1
133 -38 35 -39 35 -25 -19z"/>
<path d="M2121 118 l-48 -19 44 -31 c39 -27 46 -27 74 1 56 55 16 83 -70 49z"/>
<path d="M2668 117 c-6 -10 -3 -18 6 -18 9 -1 36 -6 60 -10 24 -5 49 -1 55 9
6 10 -17 22 -50 26 -33 5 -65 2 -71 -7z"/>
<path d="M3060 120 c0 -12 -22 -31 -49 -43 -65 -30 -83 -77 -28 -77 29 0 38 9
29 31 -7 19 -3 26 9 18 11 -7 34 -2 50 12 33 27 39 79 9 79 -11 0 -20 -9 -20
-20z"/>
<path d="M4040 120 c-22 -14 -23 -19 -4 -20 15 0 21 -8 15 -18 -17 -27 81 -82
143 -80 l56 1 -50 24 c-94 44 -104 54 -79 85 29 34 -32 40 -81 8z"/>
<path d="M6047 120 c-32 -13 -41 -29 -33 -60 9 -33 16 -37 28 -17 13 20 17 17
18 -11 0 -58 24 -23 32 47 4 34 5 60 3 60 -3 -1 -25 -9 -48 -19z"/>
<path d="M1538 82 c-50 -39 -59 -42 -108 -42 -16 0 -30 -9 -30 -20 0 -29 138
-25 166 5 93 99 74 138 -28 57z"/>
<path d="M5872 101 c-32 -6 -63 -24 -68 -41 -7 -24 -4 -25 18 -5 41 39 98 31
98 -15 0 -22 9 -40 20 -40 23 0 26 60 5 91 -8 11 -41 16 -73 10z"/>
<path d="M1875 86 c-30 -5 -55 -17 -55 -27 0 -22 90 -12 160 17 l50 21 -50 -1
c-27 -1 -75 -6 -105 -10z"/>
<path d="M3691 81 c-7 -11 30 -18 88 -16 54 1 95 9 89 18 -14 23 -163 21 -177
-2z"/>
<path d="M5218 55 c10 -27 35 -47 64 -49 26 -3 37 0 23 6 -14 6 -25 23 -25 38
0 14 -14 31 -32 38 -47 18 -48 16 -30 -33z"/>
<path d="M940 60 c0 -10 -13 -14 -30 -7 -31 12 -43 -23 -13 -41 22 -14 103 9
103 28 0 9 -13 21 -30 27 -16 7 -30 3 -30 -7z"/>
<path d="M5572 44 c-6 -10 -33 -14 -59 -9 -27 5 -54 -1 -62 -13 -9 -15 22 -22
98 -22 71 0 111 8 111 23 0 13 -6 18 -13 11 -7 -8 -25 -4 -38 7 -15 12 -30 13
-37 3z"/>
<path d="M4533 16 c5 -9 83 -15 173 -15 117 1 151 7 120 19 -54 22 -307 18
-293 -4z"/>
</g>
</svg>
